<svg width="28" height="28" viewBox="0 0 28 28" fill="none" xmlns="http://www.w3.org/2000/svg">
<path d="M19.8359 2.33325H8.16927C4.94761 2.33325 2.33594 4.94492 2.33594 8.16658V19.8333C2.33594 23.0549 4.94761 25.6666 8.16927 25.6666H19.8359C23.0576 25.6666 25.6693 23.0549 25.6693 19.8333V8.16658C25.6693 4.94492 23.0576 2.33325 19.8359 2.33325Z" stroke="white" stroke-width="2" stroke-linecap="round" stroke-linejoin="round"/>
<path d="M18.6657 13.2651C18.8097 14.2361 18.6438 15.2277 18.1917 16.099C17.7396 16.9702 17.0243 17.6768 16.1476 18.1181C15.2708 18.5594 14.2772 18.713 13.3081 18.557C12.339 18.4011 11.4437 17.9435 10.7497 17.2495C10.0556 16.5554 9.59803 15.6601 9.44209 14.691C9.28614 13.7219 9.43975 12.7283 9.88105 11.8515C10.3224 10.9748 11.0289 10.2595 11.9002 9.80739C12.7714 9.35531 13.7631 9.18946 14.734 9.33344C15.7244 9.48031 16.6413 9.94182 17.3493 10.6498C18.0573 11.3578 18.5188 12.2747 18.6657 13.2651Z" stroke="white" stroke-width="1.4" stroke-linecap="round" stroke-linejoin="round"/>
<path d="M20.4141 7.58325H20.4257" stroke="white" stroke-width="1.4" stroke-linecap="round" stroke-linejoin="round"/>
</svg>
