<svg width="28" height="28" viewBox="0 0 28 28" fill="none" xmlns="http://www.w3.org/2000/svg">
<path d="M18.6641 9.33325C20.5206 9.33325 22.3011 10.0708 23.6138 11.3835C24.9266 12.6963 25.6641 14.4767 25.6641 16.3333V24.4999H20.9974V16.3333C20.9974 15.7144 20.7516 15.1209 20.314 14.6833C19.8764 14.2458 19.2829 13.9999 18.6641 13.9999C18.0452 13.9999 17.4517 14.2458 17.0141 14.6833C16.5766 15.1209 16.3307 15.7144 16.3307 16.3333V24.4999H11.6641V16.3333C11.6641 14.4767 12.4016 12.6963 13.7143 11.3835C15.0271 10.0708 16.8075 9.33325 18.6641 9.33325Z" stroke="white" stroke-width="2" stroke-linecap="round" stroke-linejoin="round"/>
<path d="M7.0026 10.5H2.33594V24.5H7.0026V10.5Z" stroke="white" stroke-width="1.4" stroke-linecap="round" stroke-linejoin="round"/>
<path d="M4.66927 6.99992C5.95794 6.99992 7.0026 5.95525 7.0026 4.66659C7.0026 3.37792 5.95794 2.33325 4.66927 2.33325C3.38061 2.33325 2.33594 3.37792 2.33594 4.66659C2.33594 5.95525 3.38061 6.99992 4.66927 6.99992Z" stroke="white" stroke-width="1.4" stroke-linecap="round" stroke-linejoin="round"/>
</svg>
